<?xml version="1.0" encoding="UTF-8"?>
<svg version="1.1" xmlns="http://www.w3.org/2000/svg" width="445" height="149">
<path d="M0 0 C13.21848277 11.82706353 16.57653509 29.46652246 17.625 46.3125 C18.562436 65.89204569 16.45374563 85.93183364 3.875 101.8125 C-4.4479099 110.9330221 -15.47924667 115.53286531 -27.703125 116.1484375 C-42.45645204 116.43233531 -55.19812399 114.2533392 -66.27734375 103.77734375 C-71.13136788 98.65214509 -74.414292 93.30992222 -77.125 86.8125 C-77.42148438 86.10609375 -77.71796875 85.3996875 -78.0234375 84.671875 C-85.45821565 64.7967255 -84.4881982 37.97219151 -76.8125 18.3125 C-71.00014969 5.66717834 -63.16733739 -2.92119342 -50.125 -8.1875 C-33.3602095 -14.35385972 -14.12181427 -9.88526999 0 0 Z M-48.78125 17.125 C-58.9428328 29.88605748 -58.47027249 49.67614795 -56.88623047 65.14404297 C-55.49636725 75.58747978 -53.5723523 84.89467948 -44.9765625 91.625 C-39.93113104 94.86088853 -33.99258493 95.63417258 -28.125 94.8125 C-21.51621871 93.19360474 -17.08069789 90.75535952 -13.3046875 85.02734375 C-8.26733603 75.56979976 -7.91549272 65.71800903 -7.88476562 55.20166016 C-7.87512725 53.2137446 -7.84395701 51.22597127 -7.8125 49.23828125 C-7.76358689 37.02223268 -9.28339975 25.61913483 -17.125 15.8125 C-21.41147744 11.76236969 -26.61236531 11.03740469 -32.34765625 10.71484375 C-38.4322351 10.92878815 -44.25923529 12.90445294 -48.78125 17.125 Z " fill="#FFFFFF" transform="translate(317.125,16.1875)"/>
<path d="M0 0 C8.91 0 17.82 0 27 0 C35 14 43 28 51 42 C55.04090535 40.65303155 55.46033195 38.92156004 57.51171875 35.234375 C57.84363724 34.64513245 58.17555573 34.05588989 58.51753235 33.4487915 C59.58293139 31.55393828 60.63570987 29.65243535 61.6875 27.75 C62.37604654 26.51511907 63.06549119 25.28073845 63.75585938 24.046875 C64.26628281 23.13353142 64.26628281 23.13353142 64.78701782 22.20173645 C65.48004426 20.97072599 66.17879486 19.74292106 66.88314819 18.51835632 C68.64356957 15.45627142 70.30862414 12.39541376 71.82861328 9.20629883 C73.54974936 5.76635499 75.31166479 2.79928416 78 0 C82.61023356 -1.52683004 86.70907093 -1.25737199 91.5 -0.8125 C92.70398438 -0.75384766 93.90796875 -0.69519531 95.1484375 -0.63476562 C98.10773249 -0.48210358 101.04942309 -0.26936446 104 0 C99.8822705 7.63164109 95.64642269 15.18970284 91.33517456 22.71359253 C90.28948522 24.54020221 89.24714835 26.36869427 88.20532227 28.19750977 C85.01604376 33.78827632 81.80398584 39.36082706 78.4765625 44.87109375 C77.95795654 45.73734375 77.43935059 46.60359375 76.9050293 47.49609375 C75.95269892 49.08040647 74.98864704 50.65775421 74.01098633 52.2265625 C73.59357178 52.92394531 73.17615723 53.62132812 72.74609375 54.33984375 C72.38185303 54.93144287 72.0176123 55.52304199 71.64233398 56.13256836 C70.73610361 58.76721532 71.20437104 60.35126056 72 63 C73.13102846 65.37868183 73.13102846 65.37868183 74.59765625 67.75390625 C75.14446045 68.67776123 75.69126465 69.60161621 76.25463867 70.5534668 C76.85123291 71.54644775 77.44782715 72.53942871 78.0625 73.5625 C79.33204461 75.70495023 80.60021517 77.84821511 81.8671875 79.9921875 C82.53717773 81.12366211 83.20716797 82.25513672 83.89746094 83.42089844 C87.56185161 89.63726781 91.11849323 95.9160761 94.6875 102.1875 C96.02421397 104.53545664 97.36155854 106.88305072 98.69921875 109.23046875 C99.26471436 110.22457764 99.83020996 111.21868652 100.4128418 112.24291992 C101.47790441 114.09305869 102.57649943 115.92426328 103.70629883 117.7355957 C105 120 105 120 105 122 C100.79285562 122.26221814 96.58781109 122.42147604 92.375 122.5625 C90.59029297 122.67561523 90.59029297 122.67561523 88.76953125 122.79101562 C80.20641851 123.00628941 80.20641851 123.00628941 77.0690918 120.3894043 C75.44402712 118.00937345 74.22987252 115.60608139 73 113 C71.87477983 111.01965933 70.74017944 109.04462743 69.59765625 107.07421875 C68.4155072 104.94740009 67.23717489 102.81845587 66.0625 100.6875 C61.47264996 92.39730574 56.80791497 84.16567861 52 76 C49.03052173 79.53984036 46.65414968 83.13139351 44.390625 87.15625 C44.06012146 87.73983276 43.72961792 88.32341553 43.38909912 88.92468262 C42.33855264 90.78079845 41.293831 92.64010057 40.25 94.5 C39.56556828 95.71640709 38.88067563 96.93255495 38.1953125 98.1484375 C37.85717529 98.7487529 37.51903809 99.3490683 37.1706543 99.96757507 C36.48382109 101.17695055 35.79060234 102.38272169 35.09106445 103.58479309 C33.33393727 106.60448451 31.68075104 109.62220897 30.17578125 112.77612305 C28.45224332 116.2203488 26.6878961 119.1937018 24 122 C19.39016936 123.52804357 15.29085977 123.25736555 10.5 122.8125 C9.29601562 122.75384766 8.09203125 122.69519531 6.8515625 122.63476562 C3.89226751 122.48210358 0.95057691 122.26936446 -2 122 C6.16499489 107.0153002 14.44667463 92.12732218 23.08984375 77.41137695 C24.20845867 75.50535801 25.32149628 73.59605196 26.42822266 71.68310547 C27.45751992 69.92604163 28.51375701 68.18442055 29.59912109 66.46142578 C30.07559082 65.68138184 30.55206055 64.90133789 31.04296875 64.09765625 C31.46989014 63.42355713 31.89681152 62.74945801 32.33666992 62.05493164 C33.29547259 59.08465483 32.39140194 57.73964755 31 55 C30.0482031 53.22892627 29.0622578 51.47596209 28.05078125 49.73828125 C27.45668457 48.71355713 26.86258789 47.68883301 26.25048828 46.63305664 C25.61095215 45.53727295 24.97141602 44.44148926 24.3125 43.3125 C23.30773831 41.58008009 22.30298069 39.84765782 21.29846191 38.11509705 C19.89271707 35.69209892 18.48413707 33.27075404 17.07562256 30.84936523 C14.25322981 25.99670109 11.43483348 21.14174128 8.62240601 16.28329468 C7.63770265 14.58441551 6.64956156 12.88753043 5.66137695 11.19067383 C5.06413818 10.15966553 4.46689941 9.12865723 3.8515625 8.06640625 C3.32385254 7.15834229 2.79614258 6.25027832 2.25244141 5.31469727 C1 3 1 3 0 0 Z " fill="#FFFFFF" transform="translate(12,8)"/>
<path d="M0 0 C0 25.08 0 50.16 0 76 C6.27 76 12.54 76 19 76 C19 82.6 19 89.2 19 96 C12.73 96 6.46 96 0 96 C0 104.58 0 113.16 0 122 C-7.92 122 -15.84 122 -24 122 C-24 113.42 -24 104.84 -24 96 C-42.15 96 -60.3 96 -79 96 C-79 71.89147287 -79 71.89147287 -73.6875 64.75 C-73.14134033 63.93176758 -72.59518066 63.11353516 -72.0324707 62.27050781 C-70.91888529 60.6084208 -69.78593424 58.95912424 -68.6328125 57.32421875 C-66.66658667 54.52540447 -64.82235224 51.66073908 -62.9831543 48.77758789 C-61.66569935 46.71588385 -60.32832341 44.66817538 -58.98828125 42.62109375 C-56.05093669 38.10634204 -53.19205656 33.54441749 -50.34912109 28.96972656 C-49.03768765 26.8723413 -47.71122714 24.78427431 -46.36962891 22.70605469 C-43.19455856 17.7564223 -40.31595019 13.13303134 -38.59838867 7.48120117 C-30.69346805 -7.63744857 -17.37403224 0 0 0 Z M-25 29 C-25.87903062 30.20811446 -26.70898901 31.45193896 -27.51953125 32.70703125 C-28.0417627 33.51261475 -28.56399414 34.31819824 -29.10205078 35.14819336 C-29.66649902 36.02741455 -30.23094727 36.90663574 -30.8125 37.8125 C-31.38983887 38.70654541 -31.96717773 39.60059082 -32.56201172 40.52172852 C-38.04215118 49.02541892 -43.48433058 57.55546276 -48.83691406 66.14013672 C-49.82341408 67.71762562 -50.82777093 69.28392555 -51.8359375 70.84765625 C-53.23785868 73.03197203 -53.23785868 73.03197203 -53 76 C-43.43 76 -33.86 76 -24 76 C-24 60.49 -24 44.98 -24 29 C-24.33 29 -24.66 29 -25 29 Z " fill="#FFFFFF" transform="translate(202,8)"/>
<path d="M0 0 C6.43519216 5.65853104 9.79360333 12.77537576 10.3828125 21.29296875 C10.93236576 35.44916357 7.70211248 44.46029507 -2 55 C-8.45903191 61.66908173 -16.16509939 66.74929746 -23.75 72.03125 C-27.47115679 74.6233664 -31.15878023 77.25094134 -34.8125 79.9375 C-35.72644531 80.60652344 -36.64039063 81.27554688 -37.58203125 81.96484375 C-41.57328734 85.32420469 -43.72528347 87.90113387 -45 93 C-27.18 93.33 -9.36 93.66 9 94 C9 100.93 9 107.86 9 115 C-17.73 115 -44.46 115 -72 115 C-72 84.57251908 -72 84.57251908 -59.953125 71.8359375 C-52.68996831 64.94846133 -44.32859188 59.36962296 -36.19921875 53.56933594 C-35.47347656 53.05145508 -34.74773437 52.53357422 -34 52 C-33.33871094 51.52852539 -32.67742187 51.05705078 -31.99609375 50.57128906 C-20.32934016 42.25621718 -20.32934016 42.25621718 -15 29.4375 C-14.74586431 24.97087268 -15.64917744 21.86748227 -18 18 C-22.24640148 13.9659186 -26.46391904 13.21371199 -32.12890625 12.90625 C-40.45708781 13.17819062 -46.94415237 16.40069077 -53 22 C-54.80275341 23.93434125 -56.39435806 25.89259495 -58 28 C-62.54661274 27.63281512 -64.85736912 24.32623413 -67.6875 21.125 C-68.18572266 20.58230469 -68.68394531 20.03960937 -69.19726562 19.48046875 C-71.42312425 17.00997709 -72.93761995 15.18714014 -74 12 C-56.30976331 -9.70875959 -23.76232229 -17.99147259 0 0 Z " fill="#FFFFFF" transform="translate(420,15)"/>
</svg>
